<?xml version="1.0" encoding="utf-8"?>
<!-- Generator: Adobe Illustrator 23.1.0, SVG Export Plug-In . SVG Version: 6.00 Build 0)  -->
<svg version="1.1" id="Layer_1" xmlns="http://www.w3.org/2000/svg" xmlns:xlink="http://www.w3.org/1999/xlink" x="0px" y="0px"
	 viewBox="0 0 1080 1080" style="enable-background:new 0 0 1080 1080;" xml:space="preserve">
<style type="text/css">
	.st0{fill:#99DDFF;}
	.st1{fill:#7ACCED;}
	.st2{fill:#1C1B1A;}
	.st3{fill:#F75263;}
</style>
<rect x="-1100" y="-760" class="st0" width="1080" height="2600"/>
<path class="st1" d="M-20,573.8v1209.3l-897-897l63.8-376.5l-18.8-18.8l74.3-24.2l-44.9-44.9l469.1-201.4L-20,573.8z"/>
<g>
	<path class="st2" d="M660.3,925.4c0,8-6.5,14.8-14.6,14.8c-0.5,0-1-0.2-1.5-0.2c0,0-432-43.4-432.7-43.4
		c-5.8-0.2-35.2-2.9-35.2-26.7c0-32-5.6-241.1-8-330.8c-0.2-9.7,4.9-18.7,13.1-23.5c3.4-1.9,7.3-3.6,11.2-4.9l4.9-1.5h0.2
		c7-1.7,16.5-1.9,30.1-1c0.5,0,363.3,27.4,363.3,27.4s16,1.7,25.7,4.9c9.9,3.4,19.2,6.1,27.4,11.4c10.2,6.8,14.8,15.5,14.8,26.9
		L660.3,925.4z"/>
	<path class="st1" d="M609.6,825l-129-90.2c-8.5-5.8-8-18.7,1-24L605.7,638c7-4.1,9-13.3,4.6-19.9L586.1,581
		c-2.7-4.1-7.3-6.3-11.9-6.3c-2.4,0-5.1,0.7-7.3,1.9l-163.7,96c-2.2,1.5-4.6,1.9-7.3,1.9c-3.2,0-6.3-1-9-3.4l-138.3-113
		c-2.7-2.2-5.8-3.2-9-3.2c-5.1,0-9.9,2.7-12.6,7.3l-15.3,27.4c-3.4,5.8-1.9,13.1,2.9,17.5l103.8,91.9c6.8,6.1,6.3,17-1.2,22.3
		l-94.6,66.7c-5.6,3.9-7.8,11.6-4.6,17.7l18.4,37.6c2.4,5.1,7.8,8,12.9,8c2.7,0,5.1-0.7,7.5-1.9l130.2-80c2.4-1.5,5.1-1.9,7.5-1.9
		c2.9,0,5.6,0.7,8.2,2.4l165.4,115.5c2.4,1.7,5.3,2.4,8.2,2.4c4.6,0,9-2.4,11.9-6.3l24.7-37.1C617.6,838.1,615.9,829.6,609.6,825z"
		/>
	<path class="st2" d="M911.6,513.1v303.2c0,8.5-5.1,16-12.6,19.6c-70.8,33.2-205.7,96-208.3,97.3c-2.9,1.2-5.3,0.7-6.8-0.2
		c-0.5-0.2-0.7-0.5-1-0.7c-1.2-0.7-3.6-2.9-3.6-6.8V573.7c0-6.3,1-9.9,4.1-12.9c1.9-1.9,5.1-3.4,9.5-5.1l207.6-60.4l0,0
		c2.2-0.7,4.4-0.2,6.3,1c1.9,1.2,3.2,2.9,3.6,5.1C911.1,504.8,911.6,509,911.6,513.1z"/>
	<path class="st3" d="M594.3,838.1l-18.9,28.4L414.4,753.9c-5.6-3.9-12.4-6.1-19.2-6.1c-6.3,0-12.4,1.7-17.7,5.1l-125.4,76.9
		l-13.8-28.4l91-64c8.5-6.1,13.6-15.3,14.3-25.7c0.7-10.4-3.6-20.1-11.2-26.9l-100.7-89l10.2-18.2l133.4,108.9
		c5.8,4.9,13.6,7.8,21.3,7.8c6.1,0,11.9-1.5,17-4.6L573,596l18.4,28.4l-119.6,70.1c-9.9,5.8-16,16.3-16.5,27.7
		c-0.5,11.6,4.9,22.3,14.3,28.9L594.3,838.1z"/>
	<path class="st3" d="M751,447.1c0,5.6-4.1,10.7-9.7,11.6c-4.1,0.7-7.8,1.5-11.4,2.4c-8.5,1.9-16.7,3.6-27.2,5.1h-0.2h-0.2
		c-40.7,5.8-89.5,11.4-168.6,11.4c-10.4,0-21.1-0.2-32-0.2c-44.6-0.7-77.6-2.4-107.2-5.3c-4.4-0.5-8.5-0.7-12.1-1.2
		c-23.8-2.4-36.9-3.6-45.8-6.3c-4.1-1.2-6.8-5.1-6.8-9.2v-0.5c0-1.9,1.5-3.4,3.4-3.4c0.2,0,0.2,0,0.2,0l0.7,0.2
		c27.2,2.9,109.9,12.1,196.2,12.1c9.2,0,18.4-0.2,27.4-0.2c63.5-1.5,125.4-8.2,189.2-20.1c0.2,0,0.5,0,0.7,0c1,0,1.9,0.5,2.7,1.2
		C750.5,445.4,751,446.1,751,447.1z"/>
	<path class="st2" d="M894.1,474.3c-0.5,1.5-2.2,3.4-6.1,4.6L677.5,539c-1.2,0.5-2.7,0.7-3.9,0.7c-6.3,0.7-12.1-1.5-16-3.6
		c-0.5-0.2-11.4-6.3-21.6-10.7c-8-3.4-22.1-6.3-50.2-9.2c0,0-354.6-24.7-356.8-25c-0.2,0-1.2,0-1.5-1.5c-0.2-1.5,0.7-1.5,1.2-1.7
		c6.3-1.7,70.1-20.6,75.7-22.1c2.9-0.7,5.8-1.7,7,1c1,2.4,1.7,3.9,4.4,6.8c3.9,4.1,9.7,5.6,14.3,6.8c7.8,1.9,14.8,2.7,29.6,3.9
		c9,0.7,19.4,1.5,31,2.7c31.3,3.2,68.9,4.9,111.6,5.3c85.4,1,148.9-2.7,205.9-11.2c11.6-1.9,30.3-4.9,43.9-7.8
		c10.2-1.9,16.3-10.9,16.5-21.3c0-0.7,0-2.4,1.9-3.4c2.2-1.5,3.6-1.9,5.6-2.4c10.2-2.4,9-1.2,21.8-5.6c6.8-2.4,11.9-6.1,15.5-5.8
		c9.5,0.7,21.3,3.6,25.2,5.1c45.4,16.5,50.7,23.3,54.3,27.9C894.4,470.6,894.4,473.1,894.1,474.3z"/>
	<path class="st3" d="M801.2,415.8l-0.7,0.5c-1.5,0.7-2.9,1.5-4.1,1.9c-4.1,1.5-16.3,5.1-34.2,8.7c-22.1,4.6-102.4,19.4-204,21.8
		c-12.6,0.2-25.2,0.5-37.6,0.5c-81.7,0-141.6-6.3-185.6-11.2c-5.8-0.7-11.4-1.2-16.5-1.7h-0.7h-0.7c-3.6-0.2-7.3-0.7-10.7-1.2
		c-17.7-1.7-32.3-5.1-43.7-9.9c-6.8-2.9-10.7-9.7-9.9-17c5.6-61.4,24.7-113,41.5-136.8c18.7-26.7,46.6-61.6,99.9-93.4
		c31.8-19.2,89.7-38.3,148-38.3c74,0,130.7,37.8,149.4,50.2c26,17.5,71.3,65.7,89,100.2c19.2,37.1,28.4,79.3,30.6,104.3
		C812.6,408.5,808.3,411.9,801.2,415.8z"/>
</g>
</svg>
