<svg id="Layer_1" data-name="Layer 1" xmlns="http://www.w3.org/2000/svg" viewBox="0 0 1080 1080"><defs><style>.cls-1{fill:#1c1b1a;}.cls-2{fill:#7acced;}.cls-3{fill:#f75263;}</style></defs><title>button</title><path class="cls-1" d="M660.30862,925.41093a14.80568,14.80568,0,0,1-14.553,14.79553c-.48513,0-.97018-.24257-1.45531-.24257,0,0-431.98042-43.41632-432.708-43.41632-5.82118-.24256-35.16965-2.91062-35.16965-26.68043,0-32.01654-5.57864-241.094-8.00414-330.8373a26.554,26.554,0,0,1,13.09767-23.52728,57.47817,57.47817,0,0,1,11.15727-4.851l4.851-1.45531h.24255c7.03394-1.69784,16.49336-1.9404,30.07612-.97018.4851,0,363.33895,27.40808,363.33895,27.40808s16.00827,1.69784,25.71024,4.851c9.94454,3.39567,19.16139,6.06373,27.40805,11.39985,10.1871,6.79135,14.79553,15.52314,14.79553,26.923Z"/><path class="cls-2" d="M609.61582,824.99551,480.57957,734.76712a14.2954,14.2954,0,0,1,.97019-24.01237L605.735,637.98994a14.10724,14.10724,0,0,0,4.60842-19.88907l-24.25493-37.11a14.10792,14.10792,0,0,0-11.88491-6.30629,15.54625,15.54625,0,0,0-7.27648,1.94036L403.20631,672.67447a12.63224,12.63224,0,0,1-7.27648,1.94037,13.02249,13.02249,0,0,1-8.97432-3.39568l-138.25314-113.028a13.99445,13.99445,0,0,0-8.97431-3.15312,14.55568,14.55568,0,0,0-12.61256,7.27648l-15.28062,27.40805a14.04744,14.04744,0,0,0,2.91058,17.46359L318.5566,699.11234a14.30449,14.30449,0,0,1-1.21275,22.31457L222.7496,788.128a14.08516,14.08516,0,0,0-4.60844,17.70607l18.43375,37.59515A14.40075,14.40075,0,0,0,249.43,851.4333a16.508,16.508,0,0,0,7.519-1.94036l130.249-80.04129a14.51146,14.51146,0,0,1,7.51905-1.94036,14.82294,14.82294,0,0,1,8.24666,2.42549L568.38243,885.39029a14.28,14.28,0,0,0,8.24667,2.42549,15.07324,15.07324,0,0,0,11.8849-6.3063l24.74006-37.11C617.61992,838.09316,615.92205,829.60394,609.61582,824.99551Z"/><path class="cls-1" d="M911.58977,513.077V816.26372a21.98246,21.98246,0,0,1-12.61259,19.64651c-70.82445,33.22929-205.68183,96.04956-208.34989,97.26231a7.17057,7.17057,0,0,1-6.79135-.24256,3.34932,3.34932,0,0,1-.97018-.72762,7.90129,7.90129,0,0,1-3.63824-6.79135V573.71444c0-6.3063.97018-9.94454,4.12337-12.85509,1.94036-1.94036,5.09355-3.39567,9.45941-5.09355L900.43256,495.371h0a7.30853,7.30853,0,0,1,6.3063.97018,7.79836,7.79836,0,0,1,3.63824,5.09355A57.21049,57.21049,0,0,1,911.58977,513.077Z"/><path class="cls-3" d="M594.33517,838.09316l-18.91882,28.37831L414.36359,753.92858a33.87786,33.87786,0,0,0-19.16138-6.06373,32.70187,32.70187,0,0,0-17.70611,5.09355l-125.398,76.88817-13.82531-28.3783,90.956-64.033a34.07792,34.07792,0,0,0,14.3104-25.71024,33.10631,33.10631,0,0,0-11.15729-26.923l-100.658-89.01564,10.18707-18.1912L375.31309,686.49981a33.90424,33.90424,0,0,0,21.34435,7.76161A31.90778,31.90778,0,0,0,413.6359,689.653l159.35488-93.62407,18.43377,28.37831L471.84771,694.504a33.523,33.523,0,0,0-16.49337,27.65061,33.06089,33.06089,0,0,0,14.3104,28.86336Z"/><path class="cls-3" d="M751.02207,447.10361a11.937,11.937,0,0,1-9.702,11.64237c-4.12336.72766-7.7616,1.45532-11.39984,2.4255-8.48923,1.9404-16.7359,3.63824-27.16556,5.09355h-.48506c-40.74826,5.82117-89.50069,11.39981-168.5718,11.39981-10.42963,0-21.10179-.24256-32.01651-.24256-44.62906-.72766-77.61579-2.4255-107.20681-5.33608-4.36589-.48509-8.48922-.72766-12.12746-1.21275-23.76985-2.42549-36.8675-3.63824-45.84182-6.3063a9.6043,9.6043,0,0,1-6.79139-9.21688v-.48509a3.31582,3.31582,0,0,1,3.39568-3.39568h.24256l.72766.24257c27.16552,2.91058,109.87487,12.12747,196.22241,12.12747,9.21689,0,18.43377-.24257,27.40805-.24257,63.548-1.45531,125.39805-8.24666,189.1885-20.1316h.72762a3.89511,3.89511,0,0,1,2.66806,1.21274A7.11784,7.11784,0,0,1,751.02207,447.10361Z"/><path class="cls-1" d="M894.12619,474.26913c-.48513,1.45531-2.18293,3.39567-6.06373,4.60842L677.52964,539.0298a10.98579,10.98579,0,0,1-3.8808.72765c-6.3063.72762-12.12747-1.45531-16.00827-3.63824-.48513-.24256-11.39985-6.30629-21.58688-10.67215-8.0041-3.39568-22.072-6.3063-50.20775-9.21689,0,0-354.60715-24.74-356.79012-24.98259-.24254,0-1.21274,0-1.45529-1.45531s.72766-1.45531,1.21275-1.69784c6.30628-1.69783,70.09677-20.61669,75.67541-22.072,2.91058-.72766,5.82117-1.69784,7.03392.97018a18.57867,18.57867,0,0,0,4.36589,6.79139c3.88081,4.12333,9.702,5.57864,14.3104,6.79139,7.76157,1.9404,14.79552,2.66806,29.591,3.8808,8.97432.72766,19.40395,1.45531,31.04633,2.66806,31.28885,3.15315,68.884,4.851,111.5727,5.33608,85.37737.97018,148.92533-2.66806,205.92443-11.15729,11.64234-1.9404,30.31867-4.851,43.90145-7.76157,10.1871-1.9404,16.25083-10.91472,16.49332-21.34435a3.41592,3.41592,0,0,1,1.94037-3.39567,15.616,15.616,0,0,1,5.5786-2.4255c10.18711-2.42549,8.97436-1.21274,21.82945-5.57864,6.79135-2.42549,11.8849-6.06373,15.52314-5.82117a118.89651,118.89651,0,0,1,25.22512,5.09355c45.35676,16.49336,50.6928,23.28475,54.331,27.89318A10.97018,10.97018,0,0,1,894.12619,474.26913Z"/><path class="cls-3" d="M801.22982,415.81476l-.72762.48509c-1.45531.72765-2.91063,1.45531-4.12337,1.9404-4.12337,1.45531-16.25084,5.09355-34.19948,8.73179-22.072,4.60842-102.35585,19.404-203.984,21.82944-12.6126.24257-25.22512.48509-37.59515.48509-81.73913,0-141.64881-6.30629-185.55026-11.15728-5.82117-.72766-11.39981-1.21275-16.49336-1.69784h-1.45531c-3.63824-.24256-7.27648-.72765-10.67216-1.21275-17.70611-1.69783-32.25907-5.09355-43.65888-9.94453a16.47328,16.47328,0,0,1-9.94454-16.97846c5.57864-61.365,24.74-113.028,41.476-136.79786,18.6763-26.68043,46.56947-61.60754,99.93033-93.3815,31.774-19.1614,89.74326-38.32281,147.95511-38.32281,73.97755,0,130.73409,37.8377,149.41042,50.20771,25.95281,17.46355,71.30949,65.73089,89.01564,100.17289,19.16138,37.11006,28.3783,79.31364,30.56123,104.29623C812.62959,408.53827,808.26373,411.934,801.22982,415.81476Z"/></svg>