<?xml version="1.0" encoding="utf-8"?>
<!-- Generator: Adobe Illustrator 23.1.0, SVG Export Plug-In . SVG Version: 6.00 Build 0)  -->
<svg version="1.1" id="Layer_1" xmlns="http://www.w3.org/2000/svg" xmlns:xlink="http://www.w3.org/1999/xlink" x="0px" y="0px"
	 viewBox="0 0 475.2 512" style="enable-background:new 0 0 475.2 512;" xml:space="preserve">
<path d="M313.8,280.9c0-7.3-2.9-12.9-9.5-17.2c-5.3-3.4-11.2-5.1-17.5-7.3c-6.2-2-16.4-3.1-16.4-3.1S38.3,235.8,38,235.8
	c-8.7-0.6-14.7-0.5-19.2,0.6h-0.2l-3.1,0.9c-2.5,0.8-5,1.9-7.1,3.1c-5.3,3.1-8.5,8.8-8.4,15C1.6,312.8,5.1,446.5,5.1,467
	c0,15.2,18.8,16.9,22.5,17.1c0.5,0,276.7,27.8,276.7,27.8c0.3,0,0.6,0.2,0.9,0.2c5.1,0,9.3-4.3,9.3-9.5L313.8,280.9z M284.5,450.9
	l-15.8,23.7c-1.9,2.5-4.7,4-7.6,4c-1.9,0-3.7-0.5-5.3-1.6L150,403.3c-1.7-1.1-3.4-1.6-5.3-1.6c-1.6,0-3.3,0.3-4.8,1.2l-83.3,51.2
	c-1.6,0.8-3.1,1.2-4.8,1.2c-3.3,0-6.7-1.9-8.2-5.1l-11.9-24.4c-2-3.9-0.6-8.8,2.9-11.3l60.5-42.7c4.8-3.4,5.1-10.4,0.8-14.3
	l-66.4-58.8c-3.1-2.8-4-7.4-1.9-11.2l9.8-17.5c1.7-2.9,4.8-4.7,8.1-4.7c2,0,4,0.6,5.7,2l88.4,72.3c1.7,1.6,3.7,2.2,5.7,2.2
	c1.7,0,3.3-0.3,4.7-1.2l104.7-61.4c1.4-0.8,3.1-1.2,4.7-1.2c2.9,0,5.9,1.4,7.6,4l15.5,23.7c2.8,4.2,1.6,10.1-2.9,12.7l-79.4,46.5
	c-5.7,3.4-6,11.6-0.6,15.4l82.7,57.9C286.2,441.1,287.3,446.7,284.5,450.9z"/>
<path d="M475.2,238.9v193.9c0,5.4-3.3,10.2-8.1,12.6c-45.3,21.2-131.5,61.4-133.2,62.2c-1.9,0.8-3.4,0.5-4.3-0.2
	c-0.3-0.2-0.5-0.3-0.6-0.5c-0.8-0.5-2.3-1.9-2.3-4.3V277.5c0-4,0.6-6.4,2.6-8.2c1.2-1.2,3.3-2.2,6-3.3l132.8-38.6l0,0
	c1.4-0.5,2.8-0.2,4,0.6c1.2,0.8,2,1.9,2.3,3.3C474.9,233.6,475.2,236.1,475.2,238.9z"/>
<path d="M272.2,446.7l-12.1,18.1l-103-72c-3.6-2.5-7.9-3.9-12.3-3.9c-4,0-7.9,1.1-11.3,3.3l-80.2,49.2l-8.8-18.1l58.2-40.9
	c5.4-3.9,8.7-9.8,9.2-16.4c0.5-6.7-2.3-12.9-7.1-17.2l-64.4-56.9l6.5-11.6l85.3,69.6c3.7,3.1,8.7,5,13.6,5c3.9,0,7.6-0.9,10.9-2.9
	l101.9-59.9l11.8,18.1l-76.5,44.8c-6.4,3.7-10.2,10.4-10.5,17.7c-0.3,7.4,3.1,14.3,9.2,18.5L272.2,446.7z"/>
<path d="M372.6,196.7c0,3.6-2.6,6.8-6.2,7.4c-2.6,0.5-5,0.9-7.3,1.6c-5.4,1.2-10.7,2.3-17.4,3.3h-0.2h-0.2
	c-26.1,3.7-57.2,7.3-107.8,7.3c-6.7,0-13.5-0.2-20.5-0.2c-28.5-0.5-49.6-1.6-68.6-3.4c-2.8-0.3-5.4-0.5-7.8-0.8
	c-15.2-1.6-23.6-2.3-29.3-4c-2.6-0.8-4.3-3.3-4.3-5.9v-0.3c0-1.2,0.9-2.2,2.2-2.2c0.2,0,0.2,0,0.2,0l0.5,0.2
	c17.4,1.9,70.3,7.8,125.5,7.8c5.9,0,11.8-0.2,17.5-0.2c40.6-0.9,80.2-5.3,121-12.9c0.2,0,0.3,0,0.5,0c0.6,0,1.2,0.3,1.7,0.8
	C372.3,195.4,372.6,196.1,372.6,196.7z"/>
<path d="M464.1,213.9c-0.3,0.9-1.4,2.2-3.9,2.9l-134.6,38.5c-0.8,0.3-1.7,0.5-2.5,0.5c-4,0.5-7.8-0.9-10.2-2.3
	c-0.3-0.2-7.3-4-13.8-6.8c-5.1-2.2-14.1-4-32.1-5.9c0,0-226.8-15.8-228.2-16c-0.2,0-0.8,0-0.9-0.9s0.5-0.9,0.8-1.1
	c4-1.1,44.8-13.2,48.4-14.1c1.9-0.5,3.7-1.1,4.5,0.6c0.6,1.6,1.1,2.5,2.8,4.3c2.5,2.6,6.2,3.6,9.2,4.3c5,1.2,9.5,1.7,18.9,2.5
	c5.7,0.5,12.4,0.9,19.9,1.7c20,2,44,3.1,71.3,3.4c54.6,0.6,95.2-1.7,131.7-7.1c7.4-1.2,19.4-3.1,28.1-5c6.5-1.2,10.4-7,10.5-13.6
	c0-0.5,0-1.6,1.2-2.2c1.4-0.9,2.3-1.2,3.6-1.6c6.5-1.6,5.7-0.8,14-3.6c4.3-1.6,7.6-3.9,9.9-3.7c6,0.5,13.6,2.3,16.1,3.3
	c29,10.5,32.4,14.9,34.7,17.8C464.2,211.7,464.2,213.3,464.1,213.9z"/>
<path d="M404.7,176.5l-0.5,0.3c-0.9,0.5-1.9,0.9-2.6,1.2c-2.6,0.9-10.4,3.3-21.9,5.6c-14.1,2.9-65.5,12.4-130.4,14
	c-8.1,0.2-16.1,0.3-24,0.3c-52.3,0-90.6-4-118.7-7.1c-3.7-0.5-7.3-0.8-10.5-1.1h-0.5h-0.5c-2.3-0.2-4.7-0.5-6.8-0.8
	c-11.3-1.1-20.6-3.3-27.9-6.4c-4.3-1.9-6.8-6.2-6.4-10.9c3.6-39.2,15.8-72.3,26.5-87.5c11.9-17.1,29.8-39.4,63.9-59.7
	C164.7,12.3,201.8,0,239,0c47.3,0,83.6,24.2,95.5,32.1c16.6,11.2,45.6,42,56.9,64.1c12.3,23.7,18.1,50.7,19.5,66.7
	C412,172,409.2,174,404.7,176.5z"/>
</svg>
