<?xml version="1.0" encoding="utf-8"?>
<!-- Generator: Adobe Illustrator 23.1.0, SVG Export Plug-In . SVG Version: 6.00 Build 0)  -->
<svg version="1.1" id="Layer_1" xmlns="http://www.w3.org/2000/svg" xmlns:xlink="http://www.w3.org/1999/xlink" x="0px" y="0px"
	 viewBox="0 0 512 512" style="enable-background:new 0 0 512 512;" xml:space="preserve">
<style type="text/css">
	.st0{fill:#1C1B1A;}
	.st1{fill:#7ACCED;}
	.st2{fill:#F75263;}
</style>
<g>
	<path class="st0" d="M305.6,414.9c0,3.3-2.7,6.1-6,6.1c-0.2,0-0.4-0.1-0.6-0.1c0,0-178.1-17.9-178.4-17.9
		c-2.4-0.1-14.5-1.2-14.5-11c0-13.2-2.3-99.4-3.3-136.4c-0.1-4,2-7.7,5.4-9.7c1.4-0.8,3-1.5,4.6-2l2-0.6h0.1
		c2.9-0.7,6.8-0.8,12.4-0.4c0.2,0,149.8,11.3,149.8,11.3s6.6,0.7,10.6,2c4.1,1.4,7.9,2.5,11.3,4.7c4.2,2.8,6.1,6.4,6.1,11.1
		L305.6,414.9z"/>
	<path class="st1" d="M284.7,373.5l-53.2-37.2c-3.5-2.4-3.3-7.7,0.4-9.9l51.2-30c2.9-1.7,3.7-5.5,1.9-8.2l-10-15.3
		c-1.1-1.7-3-2.6-4.9-2.6c-1,0-2.1,0.3-3,0.8l-67.5,39.6c-0.9,0.6-1.9,0.8-3,0.8c-1.3,0-2.6-0.4-3.7-1.4l-57-46.6
		c-1.1-0.9-2.4-1.3-3.7-1.3c-2.1,0-4.1,1.1-5.2,3l-6.3,11.3c-1.4,2.4-0.8,5.4,1.2,7.2l42.8,37.9c2.8,2.5,2.6,7-0.5,9.2l-39,27.5
		c-2.3,1.6-3.2,4.8-1.9,7.3l7.6,15.5c1,2.1,3.2,3.3,5.3,3.3c1.1,0,2.1-0.3,3.1-0.8l53.7-33c1-0.6,2.1-0.8,3.1-0.8
		c1.2,0,2.3,0.3,3.4,1l68.2,47.6c1,0.7,2.2,1,3.4,1c1.9,0,3.7-1,4.9-2.6l10.2-15.3C288,378.9,287.3,375.4,284.7,373.5z"/>
	<path class="st0" d="M409.2,244.9v125c0,3.5-2.1,6.6-5.2,8.1c-29.2,13.7-84.8,39.6-85.9,40.1c-1.2,0.5-2.2,0.3-2.8-0.1
		c-0.2-0.1-0.3-0.2-0.4-0.3c-0.5-0.3-1.5-1.2-1.5-2.8v-145c0-2.6,0.4-4.1,1.7-5.3c0.8-0.8,2.1-1.4,3.9-2.1l85.6-24.9l0,0
		c0.9-0.3,1.8-0.1,2.6,0.4s1.3,1.2,1.5,2.1C409,241.5,409.2,243.2,409.2,244.9z"/>
	<path class="st2" d="M278.4,378.9l-7.8,11.7l-66.4-46.4c-2.3-1.6-5.1-2.5-7.9-2.5c-2.6,0-5.1,0.7-7.3,2.1l-51.7,31.7l-5.7-11.7
		l37.5-26.4c3.5-2.5,5.6-6.3,5.9-10.6c0.3-4.3-1.5-8.3-4.6-11.1L128.9,279l4.2-7.5l55,44.9c2.4,2,5.6,3.2,8.8,3.2
		c2.5,0,4.9-0.6,7-1.9l65.7-38.6l7.6,11.7l-49.3,28.9c-4.1,2.4-6.6,6.7-6.8,11.4c-0.2,4.8,2,9.2,5.9,11.9L278.4,378.9z"/>
	<path class="st2" d="M343,217.7c0,2.3-1.7,4.4-4,4.8c-1.7,0.3-3.2,0.6-4.7,1c-3.5,0.8-6.9,1.5-11.2,2.1H323h-0.1
		c-16.8,2.4-36.9,4.7-69.5,4.7c-4.3,0-8.7-0.1-13.2-0.1c-18.4-0.3-32-1-44.2-2.2c-1.8-0.2-3.5-0.3-5-0.5c-9.8-1-15.2-1.5-18.9-2.6
		c-1.7-0.5-2.8-2.1-2.8-3.8v-0.2c0-0.8,0.6-1.4,1.4-1.4c0.1,0,0.1,0,0.1,0l0.3,0.1c11.2,1.2,45.3,5,80.9,5c3.8,0,7.6-0.1,11.3-0.1
		c26.2-0.6,51.7-3.4,78-8.3c0.1,0,0.2,0,0.3,0c0.4,0,0.8,0.2,1.1,0.5C342.8,217,343,217.3,343,217.7z"/>
	<path class="st0" d="M402,228.9c-0.2,0.6-0.9,1.4-2.5,1.9l-86.8,24.8c-0.5,0.2-1.1,0.3-1.6,0.3c-2.6,0.3-5-0.6-6.6-1.5
		c-0.2-0.1-4.7-2.6-8.9-4.4c-3.3-1.4-9.1-2.6-20.7-3.8c0,0-146.2-10.2-147.1-10.3c-0.1,0-0.5,0-0.6-0.6s0.3-0.6,0.5-0.7
		c2.6-0.7,28.9-8.5,31.2-9.1c1.2-0.3,2.4-0.7,2.9,0.4c0.4,1,0.7,1.6,1.8,2.8c1.6,1.7,4,2.3,5.9,2.8c3.2,0.8,6.1,1.1,12.2,1.6
		c3.7,0.3,8,0.6,12.8,1.1c12.9,1.3,28.4,2,46,2.2c35.2,0.4,61.4-1.1,84.9-4.6c4.8-0.8,12.5-2,18.1-3.2c4.2-0.8,6.7-4.5,6.8-8.8
		c0-0.3,0-1,0.8-1.4c0.9-0.6,1.5-0.8,2.3-1c4.2-1,3.7-0.5,9-2.3c2.8-1,4.9-2.5,6.4-2.4c3.9,0.3,8.8,1.5,10.4,2.1
		c18.7,6.8,20.9,9.6,22.4,11.5C402.1,227.4,402.1,228.4,402,228.9z"/>
	<path class="st2" d="M363.7,204.8l-0.3,0.2c-0.6,0.3-1.2,0.6-1.7,0.8c-1.7,0.6-6.7,2.1-14.1,3.6c-9.1,1.9-42.2,8-84.1,9
		c-5.2,0.1-10.4,0.2-15.5,0.2c-33.7,0-58.4-2.6-76.5-4.6c-2.4-0.3-4.7-0.5-6.8-0.7h-0.3h-0.3c-1.5-0.1-3-0.3-4.4-0.5
		c-7.3-0.7-13.3-2.1-18-4.1c-2.8-1.2-4.4-4-4.1-7c2.3-25.3,10.2-46.6,17.1-56.4c7.7-11,19.2-25.4,41.2-38.5
		c13.1-7.9,37-15.8,61-15.8c30.5,0,53.9,15.6,61.6,20.7c10.7,7.2,29.4,27.1,36.7,41.3c7.9,15.3,11.7,32.7,12.6,43
		C368.4,201.8,366.6,203.2,363.7,204.8z"/>
</g>
</svg>
